<mxfile host="app.diagrams.net" modified="2024-07-10T20:06:05.658Z" agent="Mozilla/5.0 (Windows NT 10.0; Win64; x64) AppleWebKit/537.36 (KHTML, like Gecko) Chrome/126.0.0.0 Safari/537.36" etag="C8rFvPUFF1o9P1OQXkz-" version="24.6.4" type="github">
  <diagram name="Page-1" id="13e1069c-82ec-6db2-03f1-153e76fe0fe0">
    <mxGraphModel dx="1613" dy="663" grid="1" gridSize="10" guides="1" tooltips="1" connect="1" arrows="1" fold="1" page="1" pageScale="1" pageWidth="1100" pageHeight="850" background="none" math="0" shadow="0">
      <root>
        <mxCell id="0" />
        <mxCell id="1" parent="0" />
        <mxCell id="7baba1c4bc27f4b0-2" value="Веб-форма" style="shape=umlLifeline;perimeter=lifelinePerimeter;whiteSpace=wrap;html=1;container=1;collapsible=0;recursiveResize=0;outlineConnect=0;rounded=1;shadow=0;comic=0;labelBackgroundColor=none;strokeWidth=1;fontFamily=Verdana;fontSize=12;align=center;" parent="1" vertex="1">
          <mxGeometry x="240" y="80" width="100" height="580" as="geometry" />
        </mxCell>
        <mxCell id="7baba1c4bc27f4b0-10" value="" style="html=1;points=[];perimeter=orthogonalPerimeter;rounded=0;shadow=0;comic=0;labelBackgroundColor=none;strokeWidth=1;fontFamily=Verdana;fontSize=12;align=center;" parent="7baba1c4bc27f4b0-2" vertex="1">
          <mxGeometry x="45" y="100" width="10" height="130" as="geometry" />
        </mxCell>
        <mxCell id="9s7P71GgFGdwjd6KX_Ig-10" value="Проверка на&amp;nbsp;&lt;div&gt;валидность&lt;/div&gt;" style="html=1;verticalAlign=bottom;endArrow=open;dashed=1;endSize=8;labelBackgroundColor=none;fontFamily=Verdana;fontSize=12;edgeStyle=elbowEdgeStyle;elbow=vertical;" edge="1" parent="7baba1c4bc27f4b0-2">
          <mxGeometry relative="1" as="geometry">
            <mxPoint x="-85" y="150" as="targetPoint" />
            <Array as="points">
              <mxPoint x="-10" y="150" />
              <mxPoint x="20" y="150" />
            </Array>
            <mxPoint x="45" y="150" as="sourcePoint" />
          </mxGeometry>
        </mxCell>
        <mxCell id="7baba1c4bc27f4b0-3" value="Очередь" style="shape=umlLifeline;perimeter=lifelinePerimeter;whiteSpace=wrap;html=1;container=1;collapsible=0;recursiveResize=0;outlineConnect=0;rounded=1;shadow=0;comic=0;labelBackgroundColor=none;strokeWidth=1;fontFamily=Verdana;fontSize=12;align=center;" parent="1" vertex="1">
          <mxGeometry x="400" y="80" width="100" height="580" as="geometry" />
        </mxCell>
        <mxCell id="7baba1c4bc27f4b0-13" value="" style="html=1;points=[];perimeter=orthogonalPerimeter;rounded=0;shadow=0;comic=0;labelBackgroundColor=none;strokeWidth=1;fontFamily=Verdana;fontSize=12;align=center;" parent="7baba1c4bc27f4b0-3" vertex="1">
          <mxGeometry x="45" y="190" width="10" height="180" as="geometry" />
        </mxCell>
        <mxCell id="7baba1c4bc27f4b0-4" value="Сервер" style="shape=umlLifeline;perimeter=lifelinePerimeter;whiteSpace=wrap;html=1;container=1;collapsible=0;recursiveResize=0;outlineConnect=0;rounded=1;shadow=0;comic=0;labelBackgroundColor=none;strokeWidth=1;fontFamily=Verdana;fontSize=12;align=center;" parent="1" vertex="1">
          <mxGeometry x="540" y="80" width="100" height="580" as="geometry" />
        </mxCell>
        <mxCell id="7baba1c4bc27f4b0-17" value="http GET-req" style="html=1;verticalAlign=bottom;endArrow=block;labelBackgroundColor=none;fontFamily=Verdana;fontSize=12;edgeStyle=elbowEdgeStyle;elbow=vertical;" parent="7baba1c4bc27f4b0-4" edge="1">
          <mxGeometry relative="1" as="geometry">
            <mxPoint x="-85" y="210" as="sourcePoint" />
            <Array as="points">
              <mxPoint x="-80" y="210" />
            </Array>
            <mxPoint x="45" y="210" as="targetPoint" />
          </mxGeometry>
        </mxCell>
        <mxCell id="7baba1c4bc27f4b0-20" value="Запрос в БД" style="html=1;verticalAlign=bottom;endArrow=block;entryX=0;entryY=0;labelBackgroundColor=none;fontFamily=Verdana;fontSize=12;edgeStyle=elbowEdgeStyle;elbow=vertical;" parent="7baba1c4bc27f4b0-4" edge="1">
          <mxGeometry relative="1" as="geometry">
            <mxPoint x="55" y="210" as="sourcePoint" />
            <mxPoint x="185" y="210" as="targetPoint" />
          </mxGeometry>
        </mxCell>
        <mxCell id="7baba1c4bc27f4b0-16" value="" style="html=1;points=[];perimeter=orthogonalPerimeter;rounded=0;shadow=0;comic=0;labelBackgroundColor=none;strokeWidth=1;fontFamily=Verdana;fontSize=12;align=center;" parent="7baba1c4bc27f4b0-4" vertex="1">
          <mxGeometry x="45" y="190" width="10" height="170" as="geometry" />
        </mxCell>
        <mxCell id="7baba1c4bc27f4b0-5" value="БД" style="shape=umlLifeline;perimeter=lifelinePerimeter;whiteSpace=wrap;html=1;container=1;collapsible=0;recursiveResize=0;outlineConnect=0;rounded=1;shadow=0;comic=0;labelBackgroundColor=none;strokeWidth=1;fontFamily=Verdana;fontSize=12;align=center;" parent="1" vertex="1">
          <mxGeometry x="680" y="80" width="100" height="580" as="geometry" />
        </mxCell>
        <mxCell id="7baba1c4bc27f4b0-19" value="" style="html=1;points=[];perimeter=orthogonalPerimeter;rounded=0;shadow=0;comic=0;labelBackgroundColor=none;strokeWidth=1;fontFamily=Verdana;fontSize=12;align=center;" parent="7baba1c4bc27f4b0-5" vertex="1">
          <mxGeometry x="45" y="190" width="10" height="160" as="geometry" />
        </mxCell>
        <mxCell id="7baba1c4bc27f4b0-11" value="Ввод данных" style="html=1;verticalAlign=bottom;endArrow=block;entryX=0;entryY=0;labelBackgroundColor=none;fontFamily=Verdana;fontSize=12;edgeStyle=elbowEdgeStyle;elbow=vertical;" parent="1" target="7baba1c4bc27f4b0-10" edge="1">
          <mxGeometry relative="1" as="geometry">
            <mxPoint x="150" y="180" as="sourcePoint" />
          </mxGeometry>
        </mxCell>
        <mxCell id="7baba1c4bc27f4b0-14" value="" style="html=1;verticalAlign=bottom;endArrow=block;entryX=0;entryY=0;labelBackgroundColor=none;fontFamily=Verdana;fontSize=12;edgeStyle=elbowEdgeStyle;elbow=vertical;" parent="1" edge="1">
          <mxGeometry relative="1" as="geometry">
            <mxPoint x="295" y="290" as="sourcePoint" />
            <mxPoint x="445" y="290.0000000000001" as="targetPoint" />
          </mxGeometry>
        </mxCell>
        <mxCell id="7baba1c4bc27f4b0-42" value="Apache Kafka" style="shape=note;whiteSpace=wrap;html=1;size=14;verticalAlign=top;align=left;spacingTop=-6;rounded=0;shadow=0;comic=0;labelBackgroundColor=none;strokeWidth=1;fontFamily=Verdana;fontSize=12" parent="1" vertex="1">
          <mxGeometry x="400" y="30" width="100" height="35" as="geometry" />
        </mxCell>
        <mxCell id="7baba1c4bc27f4b0-43" value="Noda 1.31" style="shape=note;whiteSpace=wrap;html=1;size=14;verticalAlign=top;align=left;spacingTop=-6;rounded=0;shadow=0;comic=0;labelBackgroundColor=none;strokeWidth=1;fontFamily=Verdana;fontSize=12" parent="1" vertex="1">
          <mxGeometry x="540" y="30" width="100" height="35" as="geometry" />
        </mxCell>
        <mxCell id="7baba1c4bc27f4b0-44" value="PostgreSQL" style="shape=note;whiteSpace=wrap;html=1;size=14;verticalAlign=top;align=left;spacingTop=-6;rounded=0;shadow=0;comic=0;labelBackgroundColor=none;strokeWidth=1;fontFamily=Verdana;fontSize=12" parent="1" vertex="1">
          <mxGeometry x="680" y="30" width="100" height="35" as="geometry" />
        </mxCell>
        <mxCell id="9s7P71GgFGdwjd6KX_Ig-1" value="http GET-req" style="text;html=1;align=center;verticalAlign=middle;resizable=0;points=[];autosize=1;strokeColor=none;fillColor=none;" vertex="1" parent="1">
          <mxGeometry x="330" y="260" width="90" height="30" as="geometry" />
        </mxCell>
        <mxCell id="9s7P71GgFGdwjd6KX_Ig-5" value="Authorized user" style="shape=umlActor;verticalLabelPosition=bottom;verticalAlign=top;html=1;outlineConnect=0;" vertex="1" parent="1">
          <mxGeometry x="140" y="80" width="20" height="30" as="geometry" />
        </mxCell>
        <mxCell id="9s7P71GgFGdwjd6KX_Ig-8" value="" style="endArrow=none;dashed=1;html=1;rounded=0;" edge="1" parent="1" source="9s7P71GgFGdwjd6KX_Ig-11" target="9s7P71GgFGdwjd6KX_Ig-7">
          <mxGeometry width="50" height="50" relative="1" as="geometry">
            <mxPoint x="150" y="660" as="sourcePoint" />
            <mxPoint x="149.51999999999998" y="130" as="targetPoint" />
          </mxGeometry>
        </mxCell>
        <mxCell id="9s7P71GgFGdwjd6KX_Ig-7" value="" style="rounded=0;whiteSpace=wrap;html=1;" vertex="1" parent="1">
          <mxGeometry x="145" y="160" width="10" height="170" as="geometry" />
        </mxCell>
        <mxCell id="9s7P71GgFGdwjd6KX_Ig-3" value="http response" style="html=1;verticalAlign=bottom;endArrow=open;dashed=1;endSize=8;labelBackgroundColor=none;fontFamily=Verdana;fontSize=12;edgeStyle=elbowEdgeStyle;elbow=vertical;" edge="1" parent="1" source="9s7P71GgFGdwjd6KX_Ig-17">
          <mxGeometry x="-0.1635" y="-5" relative="1" as="geometry">
            <mxPoint x="289.5" y="425" as="targetPoint" />
            <Array as="points">
              <mxPoint x="420.07000000000005" y="425" />
            </Array>
            <mxPoint x="445.07000000000005" y="425" as="sourcePoint" />
            <mxPoint as="offset" />
          </mxGeometry>
        </mxCell>
        <mxCell id="9s7P71GgFGdwjd6KX_Ig-12" value="" style="endArrow=none;dashed=1;html=1;rounded=0;" edge="1" parent="1" target="9s7P71GgFGdwjd6KX_Ig-11">
          <mxGeometry width="50" height="50" relative="1" as="geometry">
            <mxPoint x="150" y="660" as="sourcePoint" />
            <mxPoint x="150" y="260" as="targetPoint" />
          </mxGeometry>
        </mxCell>
        <mxCell id="9s7P71GgFGdwjd6KX_Ig-11" value="" style="rounded=0;whiteSpace=wrap;html=1;" vertex="1" parent="1">
          <mxGeometry x="145" y="380" width="10" height="100" as="geometry" />
        </mxCell>
        <mxCell id="9s7P71GgFGdwjd6KX_Ig-13" value="Клик &quot;Запросить&quot;" style="html=1;verticalAlign=bottom;endArrow=block;labelBackgroundColor=none;fontFamily=Verdana;fontSize=12;edgeStyle=elbowEdgeStyle;elbow=vertical;" edge="1" parent="1">
          <mxGeometry relative="1" as="geometry">
            <mxPoint x="155" y="290" as="sourcePoint" />
            <mxPoint x="280" y="290" as="targetPoint" />
          </mxGeometry>
        </mxCell>
        <mxCell id="9s7P71GgFGdwjd6KX_Ig-2" value="http response" style="html=1;verticalAlign=bottom;endArrow=open;dashed=1;endSize=8;labelBackgroundColor=none;fontFamily=Verdana;fontSize=12;edgeStyle=elbowEdgeStyle;elbow=vertical;" edge="1" parent="1">
          <mxGeometry relative="1" as="geometry">
            <mxPoint x="455" y="425" as="targetPoint" />
            <Array as="points">
              <mxPoint x="530" y="425" />
              <mxPoint x="560" y="425" />
            </Array>
            <mxPoint x="585" y="425" as="sourcePoint" />
          </mxGeometry>
        </mxCell>
        <mxCell id="7baba1c4bc27f4b0-21" value="some info" style="html=1;verticalAlign=bottom;endArrow=open;dashed=1;endSize=8;labelBackgroundColor=none;fontFamily=Verdana;fontSize=12;edgeStyle=elbowEdgeStyle;elbow=horizontal;" parent="1" edge="1">
          <mxGeometry relative="1" as="geometry">
            <mxPoint x="595" y="424" as="targetPoint" />
            <Array as="points">
              <mxPoint x="670" y="424" />
              <mxPoint x="700" y="424" />
            </Array>
            <mxPoint x="725" y="424" as="sourcePoint" />
          </mxGeometry>
        </mxCell>
        <mxCell id="9s7P71GgFGdwjd6KX_Ig-14" value="Отобразить&lt;div&gt;информацию&lt;/div&gt;" style="html=1;verticalAlign=bottom;endArrow=open;dashed=1;endSize=8;labelBackgroundColor=none;fontFamily=Verdana;fontSize=12;edgeStyle=elbowEdgeStyle;elbow=vertical;" edge="1" parent="1">
          <mxGeometry x="-0.107" y="-5" relative="1" as="geometry">
            <mxPoint x="155" y="425" as="targetPoint" />
            <Array as="points">
              <mxPoint x="255.57000000000005" y="425" />
              <mxPoint x="285.57000000000005" y="425" />
            </Array>
            <mxPoint x="290" y="425.5" as="sourcePoint" />
            <mxPoint x="1" as="offset" />
          </mxGeometry>
        </mxCell>
        <mxCell id="9s7P71GgFGdwjd6KX_Ig-16" value="" style="endArrow=none;dashed=1;html=1;rounded=0;" edge="1" parent="1">
          <mxGeometry width="50" height="50" relative="1" as="geometry">
            <mxPoint x="150" y="160" as="sourcePoint" />
            <mxPoint x="149.66" y="130" as="targetPoint" />
          </mxGeometry>
        </mxCell>
        <mxCell id="9s7P71GgFGdwjd6KX_Ig-18" value="" style="html=1;verticalAlign=bottom;endArrow=open;dashed=1;endSize=8;labelBackgroundColor=none;fontFamily=Verdana;fontSize=12;edgeStyle=elbowEdgeStyle;elbow=vertical;" edge="1" parent="1" target="9s7P71GgFGdwjd6KX_Ig-17">
          <mxGeometry x="-0.1635" y="-5" relative="1" as="geometry">
            <mxPoint x="289.5" y="425" as="targetPoint" />
            <Array as="points">
              <mxPoint x="390.07000000000005" y="425" />
            </Array>
            <mxPoint x="445.07000000000005" y="425" as="sourcePoint" />
            <mxPoint as="offset" />
          </mxGeometry>
        </mxCell>
        <mxCell id="9s7P71GgFGdwjd6KX_Ig-17" value="" style="html=1;points=[];perimeter=orthogonalPerimeter;rounded=0;shadow=0;comic=0;labelBackgroundColor=none;strokeWidth=1;fontFamily=Verdana;fontSize=12;align=center;" vertex="1" parent="1">
          <mxGeometry x="285" y="390" width="10" height="60" as="geometry" />
        </mxCell>
      </root>
    </mxGraphModel>
  </diagram>
</mxfile>
